HIERARCHY
ROOT Hips
{
	OFFSET 0.000000 35.082581 0.000000
	CHANNELS 6 Xposition Yposition Zposition Xrotation Yrotation Zrotation 
	JOINT Spine
	{
		OFFSET 0.000000 6.876099 0.125700
		CHANNELS 3 Xrotation Yrotation Zrotation
		JOINT Spine1
		{
			OFFSET 0.000000 5.730043 0.104720
			CHANNELS 3 Xrotation Yrotation Zrotation
			JOINT Spine1_split
			{
				OFFSET 0.000000 5.730043 0.104720
				CHANNELS 3 Xrotation Yrotation Zrotation
				JOINT Spine2
				{
					OFFSET 0.000000 5.730043 0.104720
					CHANNELS 3 Xrotation Yrotation Zrotation
					JOINT Neck
					{
						OFFSET 0.000000 10.314075 0.188496
						CHANNELS 3 Xrotation Yrotation Zrotation
						JOINT Head
						{
							OFFSET 0.000000 7.643700 -2.377400
							CHANNELS 3 Xrotation Yrotation Zrotation
							JOINT HeadTop_End
							{
								OFFSET 0.000000 43.788605 -13.619600
								CHANNELS 3 Xrotation Yrotation Zrotation
								End Site
								{
									OFFSET 0.000000 0.000000 0.000000
								}
							}
						}
					}
					JOINT LeftShoulder
					{
						OFFSET 2.196100 4.412489 0.087492
						CHANNELS 3 Xrotation Yrotation Zrotation
						JOINT LeftShoulder_split
						{
							OFFSET 2.196100 4.412489 0.087492
							CHANNELS 3 Xrotation Yrotation Zrotation
							JOINT LeftArm
							{
								OFFSET 8.771219 -2.981674 -0.026999
								CHANNELS 3 Xrotation Yrotation Zrotation
								JOINT LeftForeArm
								{
									OFFSET 8.512804 0.000000 -0.000000
									CHANNELS 3 Xrotation Yrotation Zrotation
									JOINT LeftHand
									{
										OFFSET 18.484802 0.000000 -0.000000
										CHANNELS 3 Xrotation Yrotation Zrotation
										JOINT LeftHandThumb1
										{
											OFFSET 2.499420 -1.158070 2.653252
											CHANNELS 3 Xrotation Yrotation Zrotation
											JOINT LeftHandThumb2
											{
												OFFSET 2.370079 -1.368366 1.368366
												CHANNELS 3 Xrotation Yrotation Zrotation
												JOINT LeftHandThumb3
												{
													OFFSET 2.676727 -1.545410 1.545409
													CHANNELS 3 Xrotation Yrotation Zrotation
													JOINT LeftHandThumb4
													{
														OFFSET 1.692226 -0.977005 0.977007
														CHANNELS 3 Xrotation Yrotation Zrotation
														End Site
														{
															OFFSET 0.000000 0.000000 0.000000
														}
													}
												}
											}
										}
										JOINT LeftHandIndex1
										{
											OFFSET 7.924831 -0.457527 2.345128
											CHANNELS 3 Xrotation Yrotation Zrotation
											JOINT LeftHandIndex2
											{
												OFFSET 3.643303 0.000000 0.000000
												CHANNELS 3 Xrotation Yrotation Zrotation
												JOINT LeftHandIndex3
												{
													OFFSET 3.810799 0.000000 0.000000
													CHANNELS 3 Xrotation Yrotation Zrotation
													JOINT LeftHandIndex4
													{
														OFFSET 2.403702 0.000000 0.000000
														CHANNELS 3 Xrotation Yrotation Zrotation
														End Site
														{
															OFFSET 0.000000 0.000000 0.000000
														}
													}
												}
											}
										}
										JOINT LeftHandMiddle1
										{
											OFFSET 8.563995 0.000000 -0.000000
											CHANNELS 3 Xrotation Yrotation Zrotation
											JOINT LeftHandMiddle2
											{
												OFFSET 3.861618 0.000000 0.000000
												CHANNELS 3 Xrotation Yrotation Zrotation
												JOINT LeftHandMiddle3
												{
													OFFSET 3.701603 0.000000 0.000000
													CHANNELS 3 Xrotation Yrotation Zrotation
													JOINT LeftHandMiddle4
													{
														OFFSET 2.322544 0.000000 0.000000
														CHANNELS 3 Xrotation Yrotation Zrotation
														End Site
														{
															OFFSET 0.000000 0.000000 0.000000
														}
													}
												}
											}
										}
										JOINT LeftHandRing1
										{
											OFFSET 8.426460 -0.424637 -3.286992
											CHANNELS 3 Xrotation Yrotation Zrotation
											JOINT LeftHandRing2
											{
												OFFSET 3.126408 0.000000 0.000000
												CHANNELS 3 Xrotation Yrotation Zrotation
												JOINT LeftHandRing3
												{
													OFFSET 3.085026 0.000000 0.000000
													CHANNELS 3 Xrotation Yrotation Zrotation
													JOINT LeftHandRing4
													{
														OFFSET 1.644005 0.000000 0.000000
														CHANNELS 3 Xrotation Yrotation Zrotation
														End Site
														{
															OFFSET 0.000000 0.000000 0.000000
														}
													}
												}
											}
										}
									}
								}
							}
						}
					}
					JOINT RightShoulder
					{
						OFFSET -2.196100 4.412496 0.070690
						CHANNELS 3 Xrotation Yrotation Zrotation
						JOINT RightShoulder_split
						{
							OFFSET -2.196100 4.412496 0.070690
							CHANNELS 3 Xrotation Yrotation Zrotation
							JOINT RightArm
							{
								OFFSET -8.771282 -2.981682 -0.094208
								CHANNELS 3 Xrotation Yrotation Zrotation
								JOINT RightForeArm
								{
									OFFSET -8.494598 0.000000 0.000000
									CHANNELS 3 Xrotation Yrotation Zrotation
									JOINT RightHand
									{
										OFFSET -18.483803 0.000000 0.000001
										CHANNELS 3 Xrotation Yrotation Zrotation
										JOINT RightHandThumb1
										{
											OFFSET -2.527351 -1.008072 2.575253
											CHANNELS 3 Xrotation Yrotation Zrotation
											JOINT RightHandThumb2
											{
												OFFSET -2.321518 -1.340328 1.340329
												CHANNELS 3 Xrotation Yrotation Zrotation
												JOINT RightHandThumb3
												{
													OFFSET -2.657753 -1.534454 1.534455
													CHANNELS 3 Xrotation Yrotation Zrotation
													JOINT RightHandThumb4
													{
														OFFSET -1.807510 -1.043568 1.043567
														CHANNELS 3 Xrotation Yrotation Zrotation
														End Site
														{
															OFFSET 0.000000 0.000000 0.000000
														}
													}
												}
											}
										}
										JOINT RightHandIndex1
										{
											OFFSET -8.811420 0.015533 2.887987
											CHANNELS 3 Xrotation Yrotation Zrotation
											JOINT RightHandIndex2
											{
												OFFSET -3.537502 0.000000 0.000000
												CHANNELS 3 Xrotation Yrotation Zrotation
												JOINT RightHandIndex3
												{
													OFFSET -3.356201 0.000000 0.000000
													CHANNELS 3 Xrotation Yrotation Zrotation
													JOINT RightHandIndex4
													{
														OFFSET -1.933098 0.000000 0.000000
														CHANNELS 3 Xrotation Yrotation Zrotation
														End Site
														{
															OFFSET 0.000000 0.000000 0.000000
														}
													}
												}
											}
										}
										JOINT RightHandMiddle1
										{
											OFFSET -8.178135 0.000000 0.000000
											CHANNELS 3 Xrotation Yrotation Zrotation
											JOINT RightHandMiddle2
											{
												OFFSET -3.901302 0.000000 0.000000
												CHANNELS 3 Xrotation Yrotation Zrotation
												JOINT RightHandMiddle3
												{
													OFFSET -3.909599 0.000000 0.000000
													CHANNELS 3 Xrotation Yrotation Zrotation
													JOINT RightHandMiddle4
													{
														OFFSET -2.376003 0.000000 0.000000
														CHANNELS 3 Xrotation Yrotation Zrotation
														End Site
														{
															OFFSET 0.000000 0.000000 0.000000
														}
													}
												}
											}
										}
										JOINT RightHandRing1
										{
											OFFSET -7.559013 0.014137 -2.865403
											CHANNELS 3 Xrotation Yrotation Zrotation
											JOINT RightHandRing2
											{
												OFFSET -3.449306 0.000000 0.000000
												CHANNELS 3 Xrotation Yrotation Zrotation
												JOINT RightHandRing3
												{
													OFFSET -3.362106 0.000000 0.000000
													CHANNELS 3 Xrotation Yrotation Zrotation
													JOINT RightHandRing4
													{
														OFFSET -2.076401 0.000000 0.000000
														CHANNELS 3 Xrotation Yrotation Zrotation
														End Site
														{
															OFFSET 0.000000 0.000000 0.000000
														}
													}
												}
											}
										}
									}
								}
							}
						}
					}
				}
			}
		}
	}
	JOINT LeftUpLeg
	{
		OFFSET 10.205400 -3.823500 0.155100
		CHANNELS 3 Xrotation Yrotation Zrotation
		JOINT LeftLeg
		{
			OFFSET 0.708757 -12.982077 0.567790
			CHANNELS 3 Xrotation Yrotation Zrotation
			JOINT LeftFoot
			{
				OFFSET -0.708756 -10.717838 -2.184338
				CHANNELS 3 Xrotation Yrotation Zrotation
				JOINT LeftToeBase
				{
					OFFSET 0.108149 -7.191104 7.560241
					CHANNELS 3 Xrotation Yrotation Zrotation
					JOINT LeftToe_End
					{
						OFFSET 0.070230 0.081724 4.490308
						CHANNELS 3 Xrotation Yrotation Zrotation
						End Site
						{
							OFFSET 0.000000 0.000000 0.000000
						}
					}
				}
			}
		}
	}
	JOINT RightUpLeg
	{
		OFFSET -10.205400 -3.823500 0.005500
		CHANNELS 3 Xrotation Yrotation Zrotation
		JOINT RightLeg
		{
			OFFSET -0.708756 -12.982134 0.610632
			CHANNELS 3 Xrotation Yrotation Zrotation
			JOINT RightFoot
			{
				OFFSET 0.708754 -10.717769 -1.945823
				CHANNELS 3 Xrotation Yrotation Zrotation
				JOINT RightToeBase
				{
					OFFSET -0.108140 -7.191069 7.372968
					CHANNELS 3 Xrotation Yrotation Zrotation
					JOINT RightToe_End
					{
						OFFSET -0.070227 0.081735 4.479403
						CHANNELS 3 Xrotation Yrotation Zrotation
						End Site
						{
							OFFSET 0.000000 0.000000 0.000000
						}
					}
				}
			}
		}
	}
}
MOTION
Frames: 5
Frame Time: 0.016667
0.026710 29.243084 0.414546 12.283446 -55.738763 10.994323 11.710750 1.246048 -2.458477 -7.573170 6.733738 -2.520091 0.000000 0.000000 0.000000 0.220138 5.397592 -4.595492 -12.580315 9.083987 1.899287 -4.773441 33.430743 5.660078 -0.000000 0.000000 -0.000000 -31.809700 13.410720 5.488770 0.000000 0.000000 0.000000 38.429527 -24.730792 -35.179204 -0.000002 -63.060869 0.000001 -30.857582 -7.137384 36.647855 -1.721973 5.255668 -13.188788 20.563162 52.534649 0.189389 -40.349715 66.790084 65.646724 -0.000004 -0.000003 -0.000002 12.956305 -4.115563 -90.449716 8.952181 4.964105 -122.050973 5.912129 5.850764 -90.598969 0.000001 -0.000002 -0.000002 9.405883 8.323718 -88.069081 9.453607 4.613547 -128.051731 6.049461 5.847720 -91.946545 -0.000001 -0.000000 -0.000001 6.580865 8.180137 -91.968094 8.173838 5.371739 -113.426021 3.188201 5.211892 -62.887696 0.000000 0.000001 -0.000000 0.882304 7.689510 10.201961 0.000000 0.000000 0.000000 7.550366 1.963492 57.853738 0.000013 75.685183 -0.000018 35.320848 10.055745 5.680945 -3.341835 -3.276464 13.774169 20.875213 -54.536072 -0.016291 -51.849629 -71.995071 -77.305201 0.000003 0.000000 -0.000000 11.836831 5.289193 89.687412 7.123264 -3.951860 122.001631 4.705712 -4.656919 90.597808 0.000000 -0.000003 -0.000004 8.171043 -7.103202 87.309024 7.522364 -3.673047 127.998442 4.814903 -4.654505 91.942822 -0.000001 0.000000 0.000001 4.801489 -6.930762 91.181338 6.504002 -4.276053 113.385990 2.539808 -4.148953 62.932222 -0.000001 0.000003 -0.000002 -48.564178 1.770516 34.129496 47.950179 -13.770764 -11.386593 -6.951045 -0.096106 -8.117721 0.612364 0.000003 0.000008 0.000000 0.000001 0.000000 -25.782011 -7.302691 -28.320037 58.276841 14.160508 -0.303786 -45.980752 -9.470930 14.418353 9.010804 -0.000049 0.000007 0.000000 -0.000002 0.000000 
0.019706 29.246075 0.412726 12.238003 -55.737721 10.936443 11.710799 1.245767 -2.459723 -7.573174 6.733735 -2.520088 0.000000 0.000000 0.000000 0.220137 5.397603 -4.595489 -12.569274 9.762729 2.145930 -4.477373 32.927881 5.264197 0.000000 0.000000 -0.000000 -31.777814 12.952650 5.310883 0.000000 0.000000 0.000000 38.682892 -24.912978 -34.934560 -0.000031 -62.511660 -0.000026 -31.157513 -7.391258 36.475283 -1.721952 5.255664 -13.188793 20.563123 52.534646 0.189424 -40.349739 66.790098 65.646765 -0.000002 -0.000003 -0.000001 12.956292 -4.115575 -90.449736 8.952174 4.964100 -122.051000 5.912134 5.850754 -90.598935 0.000003 -0.000000 -0.000002 9.405882 8.323714 -88.069081 9.453627 4.613544 -128.051717 6.049473 5.847713 -91.946552 -0.000000 -0.000001 -0.000003 6.580866 8.180106 -91.968115 8.173824 5.371739 -113.426008 3.188201 5.211885 -62.887724 -0.000000 -0.000001 0.000001 1.018013 7.684536 10.077995 0.000000 0.000000 0.000000 7.270311 2.953177 57.421073 -0.000030 75.186176 0.000014 34.670949 9.864182 5.516743 -3.341828 -3.276461 13.774149 20.875216 -54.536069 -0.016286 -51.849598 -71.995064 -77.305194 0.000001 -0.000002 -0.000000 11.836824 5.289200 89.687412 7.123257 -3.951865 122.001631 4.705713 -4.656907 90.597808 0.000000 -0.000002 -0.000002 8.171041 -7.103204 87.308997 7.522361 -3.673045 127.998442 4.814888 -4.654505 91.942809 0.000000 -0.000001 -0.000001 4.801481 -6.930756 91.181325 6.503996 -4.276060 113.386003 2.539805 -4.148954 62.932216 -0.000000 -0.000000 -0.000001 -48.524666 1.756207 34.174168 47.935664 -13.723192 -11.399490 -6.943795 -0.165360 -8.136161 0.612373 -0.000016 0.000002 -0.000000 -0.000003 0.000000 -25.714091 -7.338418 -28.278050 58.232588 14.151508 -0.304367 -45.982042 -9.470427 14.404140 9.010800 -0.000076 0.000001 0.000000 -0.000000 0.000000 
0.009574 29.244370 0.412071 12.199533 -55.682011 10.885824 11.710820 1.245113 -2.460701 -7.573171 6.733740 -2.520092 0.000000 0.000000 0.000000 0.220135 5.397589 -4.595492 -12.608601 10.491369 2.412572 -4.224774 32.405754 4.896690 0.000000 0.000000 0.000000 -31.754065 12.465687 5.128831 0.000000 0.000000 0.000000 39.012278 -25.126470 -34.726984 0.000030 -61.838784 0.000061 -31.459660 -7.671462 36.216156 -1.721937 5.255659 -13.188767 20.563155 52.534663 0.189403 -40.349681 66.790084 65.646724 -0.000000 -0.000006 -0.000004 12.956310 -4.115568 -90.449729 8.952176 4.964099 -122.051000 5.912113 5.850745 -90.598942 0.000000 0.000002 -0.000001 9.405900 8.323712 -88.069074 9.453608 4.613537 -128.051731 6.049475 5.847723 -91.946552 -0.000004 0.000003 0.000002 6.580879 8.180127 -91.968108 8.173820 5.371738 -113.426008 3.188206 5.211895 -62.887724 -0.000000 0.000001 -0.000000 1.163723 7.679726 9.947252 0.000000 0.000000 0.000000 6.979113 3.931136 56.951750 -0.000008 74.671747 0.000030 33.974573 9.691015 5.366316 -3.341846 -3.276468 13.774184 20.875218 -54.536055 -0.016292 -51.849633 -71.995084 -77.305208 0.000001 -0.000002 -0.000002 11.836825 5.289182 89.687439 7.123251 -3.951883 122.001631 4.705720 -4.656919 90.597801 -0.000001 -0.000001 -0.000001 8.171030 -7.103203 87.309017 7.522367 -3.673047 127.998442 4.814883 -4.654496 91.942816 0.000001 -0.000000 -0.000001 4.801472 -6.930778 91.181338 6.504010 -4.276054 113.386017 2.539791 -4.148957 62.932202 -0.000002 -0.000002 0.000000 -48.546806 1.733323 34.198023 47.927414 -13.670324 -11.408405 -6.902109 -0.281375 -8.145900 0.612373 -0.000013 -0.000006 0.000000 -0.000003 -0.000000 -25.612214 -7.385251 -28.237259 58.208668 14.149707 -0.303503 -46.042473 -9.522379 14.369378 9.010812 -0.000051 0.000002 -0.000000 -0.000000 0.000000 
0.000975 29.246410 0.411880 12.166551 -55.663989 10.834495 11.710861 1.244634 -2.462127 -7.573173 6.733743 -2.520092 0.000000 0.000000 0.000000 0.220140 5.397580 -4.595488 -12.694473 11.267591 2.689844 -3.974851 31.886882 4.534250 -0.000000 0.000000 -0.000000 -31.738352 11.953803 4.944365 0.000000 0.000000 0.000000 39.461578 -25.312650 -34.536879 -0.000015 -61.081016 -0.000010 -31.790026 -7.988997 35.931795 -1.721939 5.255660 -13.188793 20.563154 52.534639 0.189388 -40.349749 66.790091 65.646765 -0.000005 -0.000002 -0.000000 12.956316 -4.115563 -90.449736 8.952178 4.964108 -122.051000 5.912137 5.850757 -90.598955 0.000000 -0.000001 0.000001 9.405887 8.323717 -88.069081 9.453627 4.613546 -128.051731 6.049451 5.847717 -91.946538 0.000001 -0.000001 -0.000002 6.580880 8.180129 -91.968115 8.173829 5.371753 -113.426008 3.188195 5.211889 -62.887717 0.000000 -0.000003 0.000001 1.316092 7.674901 9.811786 0.000000 0.000000 0.000000 6.684430 4.902612 56.464303 0.000073 74.142933 -0.000058 33.251092 9.531748 5.218434 -3.341844 -3.276470 13.774178 20.875206 -54.536076 -0.016289 -51.849650 -71.995077 -77.305215 -0.000001 0.000000 -0.000002 11.836813 5.289185 89.687419 7.123244 -3.951871 122.001631 4.705734 -4.656914 90.597808 -0.000001 -0.000000 -0.000002 8.171045 -7.103199 87.309031 7.522354 -3.673031 127.998428 4.814890 -4.654494 91.942836 -0.000000 0.000000 -0.000002 4.801481 -6.930762 91.181332 6.504000 -4.276050 113.386017 2.539788 -4.148945 62.932202 0.000001 -0.000002 0.000000 -48.531738 1.713906 34.240281 47.919292 -13.621663 -11.420492 -6.889015 -0.365778 -8.160597 0.612364 0.000008 0.000004 0.000000 0.000002 0.000000 -25.533450 -7.428767 -28.190699 58.158193 14.140940 -0.303770 -46.055586 -9.536920 14.351380 9.010799 -0.000058 0.000006 0.000000 0.000002 -0.000000 
-0.011543 29.244751 0.412419 12.142670 -55.599321 10.791668 11.710903 1.243807 -2.463331 -7.573173 6.733739 -2.520093 0.000000 0.000000 0.000000 0.220140 5.397599 -4.595491 -12.821394 12.084339 2.975462 -3.719843 31.374129 4.175468 -0.000000 -0.000000 -0.000000 -31.730416 11.421059 4.759086 0.000000 0.000000 0.000000 39.967019 -25.538422 -34.374242 -0.000003 -60.212380 0.000004 -32.136767 -8.340097 35.571181 -1.721952 5.255659 -13.188777 20.563121 52.534653 0.189438 -40.349728 66.790098 65.646751 -0.000006 -0.000003 -0.000000 12.956295 -4.115588 -90.449729 8.952181 4.964108 -122.051000 5.912136 5.850738 -90.598955 0.000003 -0.000000 -0.000001 9.405896 8.323698 -88.069074 9.453613 4.613546 -128.051731 6.049475 5.847716 -91.946572 -0.000003 0.000000 -0.000001 6.580870 8.180132 -91.968108 8.173837 5.371732 -113.426008 3.188207 5.211888 -62.887710 0.000000 -0.000002 0.000000 1.475936 7.670226 9.670617 0.000000 0.000000 0.000000 6.392931 5.865462 55.957308 -0.000013 73.593526 0.000014 32.501899 9.387942 5.067066 -3.341832 -3.276452 13.774186 20.875199 -54.536076 -0.016302 -51.849650 -71.995071 -77.305194 -0.000003 0.000001 0.000002 11.836831 5.289181 89.687439 7.123273 -3.951883 122.001631 4.705733 -4.656906 90.597781 -0.000002 -0.000001 0.000001 8.171047 -7.103194 87.309024 7.522355 -3.673039 127.998483 4.814895 -4.654510 91.942822 0.000001 -0.000001 -0.000004 4.801492 -6.930755 91.181338 6.504013 -4.276069 113.385976 2.539811 -4.148952 62.932216 0.000001 0.000000 -0.000001 -48.564527 1.685955 34.266062 47.914965 -13.565365 -11.429217 -6.850229 -0.491350 -8.171219 0.612362 -0.000021 0.000005 -0.000000 -0.000000 0.000000 -25.424418 -7.483960 -28.142420 58.123059 14.137764 -0.302910 -46.120729 -9.595322 14.314371 9.010789 -0.000058 0.000006 0.000000 0.000000 -0.000000 
